<svg width="16" height="17" viewBox="0 0 16 17" fill="none" xmlns="http://www.w3.org/2000/svg">
<g id="Plus" clip-path="url(#clip0_7532_36815)">
<g id="Iconly/Bold/Plus">
<g id="Plus_2">
<path id="Vector" d="M11.7281 0.5C14.4481 0.5 16.0002 2.03602 16.0002 4.76404V12.2361C16.0002 14.9481 14.4561 16.5002 11.7361 16.5002H4.26404C1.53602 16.5002 0 14.9481 0 12.2361V4.76404C0 2.03602 1.53602 0.5 4.26404 0.5H11.7281ZM7.99208 4.90804C7.62408 4.90804 7.32807 5.20405 7.32807 5.57205V7.82807H5.06405C4.88805 7.82807 4.72005 7.90007 4.59205 8.02008C4.47205 8.14808 4.40004 8.31528 4.40004 8.49208C4.40004 8.86008 4.69605 9.15609 5.06405 9.16409H7.32807V11.4281C7.32807 11.7961 7.62408 12.0921 7.99208 12.0921C8.36008 12.0921 8.65609 11.7961 8.65609 11.4281V9.16409H10.9281C11.2961 9.15609 11.5921 8.86008 11.5921 8.49208C11.5921 8.12408 11.2961 7.82807 10.9281 7.82807H8.65609V5.57205C8.65609 5.20405 8.36008 4.90804 7.99208 4.90804Z" fill="white"/>
</g>
</g>
</g>
<defs>
<clipPath id="clip0_7532_36815">
<rect width="16" height="16" fill="white" transform="translate(0 0.5)"/>
</clipPath>
</defs>
</svg>
