<svg width="24" height="24" viewBox="0 0 24 24" fill="none" xmlns="http://www.w3.org/2000/svg">
<path d="M5 23.7C4.45 23.7 3.979 23.5043 3.587 23.113C3.195 22.7217 2.99934 22.2507 3 21.7V7.7C3 7.15 3.196 6.679 3.588 6.287C3.98 5.895 4.45067 5.69934 5 5.7H13.925L11.925 7.7H5V21.7H19V14.75L21 12.75V21.7C21 22.25 20.804 22.721 20.412 23.113C20.02 23.505 19.5493 23.7007 19 23.7H5ZM16.175 6.275L17.6 7.675L11 14.275V15.7H12.4L19.025 9.075L20.45 10.475L13.25 17.7H9V13.45L16.175 6.275ZM20.45 10.475L16.175 6.275L18.675 3.775C19.075 3.375 19.5543 3.175 20.113 3.175C20.6717 3.175 21.1423 3.375 21.525 3.775L22.925 5.2C23.3083 5.58334 23.5 6.05 23.5 6.6C23.5 7.15 23.3083 7.61667 22.925 8L20.45 10.475Z" fill="#1A202C"/>
</svg>
