<svg width="20" height="18" viewBox="0 0 20 18" fill="none" xmlns="http://www.w3.org/2000/svg">
<g id="Layer">
<path id="Vector" fill-rule="evenodd" clip-rule="evenodd" d="M9.16676 1.65838C9.22433 1.47584 9.33858 1.31641 9.49294 1.20324C9.64729 1.09007 9.8337 1.02905 10.0251 1.02905C10.2165 1.02905 10.4029 1.09007 10.5573 1.20324C10.7116 1.31641 10.8259 1.47584 10.8834 1.65838L12.4334 6.42505H17.4334C17.6317 6.41755 17.8269 6.47516 17.9893 6.58908C18.1517 6.70299 18.2724 6.86695 18.3329 7.05589C18.3933 7.24484 18.3903 7.44838 18.3242 7.63542C18.2581 7.82247 18.1325 7.98273 17.9668 8.09171L13.9084 11.0334L15.4584 15.8084C15.5197 15.9903 15.5213 16.187 15.4628 16.3698C15.4044 16.5526 15.2891 16.712 15.1336 16.8246C14.9782 16.9372 14.7908 16.9972 14.5989 16.9958C14.407 16.9944 14.2205 16.9316 14.0668 16.8167L10.0001 13.8417L5.94176 16.7917C5.78802 16.9066 5.60157 16.9694 5.40963 16.9708C5.2177 16.9722 5.03034 16.9122 4.87491 16.7996C4.71948 16.687 4.60412 16.5276 4.54569 16.3448C4.48725 16.162 4.4888 15.9653 4.5501 15.7834L6.1001 11.0084L2.04176 8.06671C1.876 7.95773 1.75047 7.79747 1.68437 7.61042C1.61826 7.42338 1.6152 7.21984 1.67566 7.03089C1.73612 6.84195 1.85678 6.67799 2.0192 6.56408C2.18161 6.45016 2.37686 6.39255 2.5751 6.40005H7.5751L9.16676 1.65838Z" stroke="#C3D4E9" stroke-width="1.5" stroke-linecap="round" stroke-linejoin="round"/>
</g>
</svg>
