<svg width="20" height="18" viewBox="0 0 20 18" fill="none" xmlns="http://www.w3.org/2000/svg">
<g id="Layer">
<path id="Vector" fill-rule="evenodd" clip-rule="evenodd" d="M9.16676 1.65832C9.22433 1.47578 9.33858 1.31635 9.49294 1.20318C9.64729 1.09001 9.8337 1.02899 10.0251 1.02899C10.2165 1.02899 10.4029 1.09001 10.5573 1.20318C10.7116 1.31635 10.8259 1.47578 10.8834 1.65832L12.4334 6.42498H17.4334C17.6317 6.41749 17.8269 6.4751 17.9893 6.58902C18.1517 6.70293 18.2724 6.86689 18.3329 7.05583C18.3933 7.24478 18.3903 7.44832 18.3242 7.63536C18.2581 7.82241 18.1325 7.98266 17.9668 8.09165L13.9084 11.0333L15.4584 15.8083C15.5197 15.9902 15.5213 16.1869 15.4628 16.3698C15.4044 16.5526 15.2891 16.7119 15.1336 16.8246C14.9782 16.9372 14.7908 16.9972 14.5989 16.9957C14.407 16.9943 14.2205 16.9316 14.0668 16.8167L10.0001 13.8417L5.94176 16.7917C5.78802 16.9066 5.60157 16.9693 5.40963 16.9707C5.2177 16.9722 5.03034 16.9122 4.87491 16.7996C4.71948 16.6869 4.60412 16.5276 4.54569 16.3448C4.48725 16.1619 4.4888 15.9652 4.5501 15.7833L6.1001 11.0083L2.04176 8.06665C1.876 7.95766 1.75047 7.79741 1.68437 7.61036C1.61826 7.42332 1.6152 7.21978 1.67566 7.03083C1.73612 6.84189 1.85678 6.67793 2.0192 6.56402C2.18161 6.4501 2.37686 6.39249 2.5751 6.39998H7.5751L9.16676 1.65832Z" stroke="#C3D4E9" stroke-width="1.5" stroke-linecap="round" stroke-linejoin="round"/>
</g>
</svg>
