<svg width="18" height="16" viewBox="0 0 18 16" fill="none" xmlns="http://www.w3.org/2000/svg">
<g id="Layer">
<path id="Vector" fill-rule="evenodd" clip-rule="evenodd" d="M8.16676 0.658319C8.22433 0.475783 8.33858 0.316351 8.49294 0.20318C8.64729 0.0900086 8.8337 0.0289917 9.0251 0.0289917C9.21649 0.0289917 9.40291 0.0900086 9.55726 0.20318C9.71161 0.316351 9.82587 0.475783 9.88343 0.658319L11.4334 5.42498H16.4334C16.6317 5.41749 16.8269 5.4751 16.9893 5.58902C17.1517 5.70293 17.2724 5.86689 17.3329 6.05583C17.3933 6.24478 17.3903 6.44832 17.3242 6.63536C17.2581 6.82241 17.1325 6.98266 16.9668 7.09165L12.9084 10.0333L14.4584 14.8083C14.5197 14.9902 14.5213 15.1869 14.4628 15.3698C14.4044 15.5526 14.2891 15.7119 14.1336 15.8246C13.9782 15.9372 13.7908 15.9972 13.5989 15.9957C13.407 15.9943 13.2205 15.9316 13.0668 15.8167L9.0001 12.8417L4.94176 15.7917C4.78802 15.9066 4.60157 15.9693 4.40963 15.9707C4.2177 15.9721 4.03034 15.9122 3.87491 15.7996C3.71948 15.6869 3.60412 15.5276 3.54569 15.3448C3.48725 15.1619 3.4888 14.9652 3.5501 14.7833L5.1001 10.0083L1.04176 7.06665C0.876001 6.95766 0.750474 6.79741 0.684365 6.61036C0.618256 6.42332 0.615199 6.21978 0.675661 6.03083C0.736123 5.84189 0.85678 5.67793 1.0192 5.56402C1.18161 5.4501 1.37686 5.39249 1.5751 5.39998H6.5751L8.16676 0.658319Z" fill="#FBAD39"/>
</g>
</svg>
