<svg width="14" height="14" viewBox="0 0 14 14" fill="none" xmlns="http://www.w3.org/2000/svg">
<path d="M13.0317 5.44252L11.865 4.85919C11.6492 4.75419 11.3808 4.83585 11.2758 5.05169C11.165 5.27335 11.2525 5.53585 11.4683 5.64085L12.3958 6.10169V8.89585L10.2083 8.90169V2.91669C10.2083 1.75002 9.42667 1.16669 8.45834 1.16669H3.79167C2.82334 1.16669 2.04167 1.75002 2.04167 2.91669V12.3959H1.16667C0.927505 12.3959 0.729172 12.5942 0.729172 12.8334C0.729172 13.0725 0.927505 13.2709 1.16667 13.2709H11.0833C11.3225 13.2709 11.5208 13.0725 11.5208 12.8334C11.5208 12.5942 11.3225 12.3959 11.0833 12.3959H10.2083V9.77669L12.8333 9.77085C13.0783 9.77085 13.2708 9.57252 13.2708 9.33335V5.83335C13.2708 5.67002 13.1775 5.51835 13.0317 5.44252ZM3.50001 4.01919C3.50001 3.20835 3.99584 2.91669 4.6025 2.91669H7.65334C8.25417 2.91669 8.75 3.20835 8.75 4.01919V4.73669C8.75 5.54169 8.25417 5.83335 7.6475 5.83335H4.6025C3.99584 5.83335 3.50001 5.54169 3.50001 4.73085V4.01919ZM3.79167 7.14585H5.54167C5.78084 7.14585 5.97917 7.34419 5.97917 7.58335C5.97917 7.82252 5.78084 8.02085 5.54167 8.02085H3.79167C3.55251 8.02085 3.35417 7.82252 3.35417 7.58335C3.35417 7.34419 3.55251 7.14585 3.79167 7.14585Z" fill="#90A3BF"/>
</svg>
