<svg width="14" height="14" viewBox="0 0 14 14" fill="none" xmlns="http://www.w3.org/2000/svg">
<path d="M5.24999 1.16669C3.72166 1.16669 2.47916 2.40919 2.47916 3.93752C2.47916 5.43669 3.65166 6.65002 5.17999 6.70252C5.22666 6.69669 5.27332 6.69669 5.30832 6.70252C5.31999 6.70252 5.32582 6.70252 5.33749 6.70252C5.34332 6.70252 5.34332 6.70252 5.34916 6.70252C6.84249 6.65002 8.01499 5.43669 8.02082 3.93752C8.02082 2.40919 6.77832 1.16669 5.24999 1.16669Z" fill="#90A3BF"/>
<path d="M8.21334 8.25418C6.58584 7.16918 3.93167 7.16918 2.29251 8.25418C1.55167 8.75001 1.14334 9.42085 1.14334 10.1383C1.14334 10.8558 1.55167 11.5208 2.28667 12.0108C3.10334 12.5592 4.17667 12.8333 5.25001 12.8333C6.32334 12.8333 7.39667 12.5592 8.21334 12.0108C8.94834 11.515 9.35668 10.85 9.35668 10.1267C9.35084 9.40918 8.94834 8.74418 8.21334 8.25418Z" fill="#90A3BF"/>
<path d="M11.6608 4.28168C11.7542 5.41335 10.9492 6.40502 9.835 6.53918C9.82917 6.53918 9.82917 6.53918 9.82334 6.53918H9.80584C9.77083 6.53918 9.73583 6.53918 9.70667 6.55085C9.14083 6.58002 8.62167 6.39918 8.23083 6.06668C8.83167 5.53002 9.17584 4.72502 9.10584 3.85002C9.065 3.37752 8.90167 2.94585 8.65667 2.57835C8.87834 2.46752 9.135 2.39752 9.3975 2.37418C10.5408 2.27502 11.5617 3.12668 11.6608 4.28168Z" fill="#90A3BF"/>
<path d="M12.8275 9.67751C12.7808 10.2433 12.4192 10.7333 11.8125 11.0658C11.2292 11.3867 10.4942 11.5383 9.76499 11.5208C10.185 11.1417 10.43 10.6692 10.4767 10.1675C10.535 9.44417 10.1908 8.75001 9.5025 8.19584C9.11166 7.88667 8.65666 7.64167 8.16083 7.46084C9.44999 7.08751 11.0717 7.33834 12.0692 8.14334C12.6058 8.57501 12.88 9.11751 12.8275 9.67751Z" fill="#90A3BF"/>
</svg>
